<mxfile host="Electron" modified="2024-10-10T00:54:41.971Z" agent="Mozilla/5.0 (Windows NT 10.0; Win64; x64) AppleWebKit/537.36 (KHTML, like Gecko) draw.io/23.0.2 Chrome/120.0.6099.109 Electron/28.1.0 Safari/537.36" etag="xhh8qOwtCoem7jzWiDPh" version="23.0.2" type="device" pages="8">
  <diagram name="minimal-system" id="un7ZIyx64XV1dEp6JRu0">
    <mxGraphModel dx="714" dy="491" grid="1" gridSize="10" guides="1" tooltips="1" connect="1" arrows="1" fold="1" page="1" pageScale="1" pageWidth="3300" pageHeight="2339" math="0" shadow="0">
      <root>
        <mxCell id="0" />
        <mxCell id="1" parent="0" />
        <mxCell id="sHdxlEWxRk9N-xYbiK_3-9" value="" style="rounded=0;whiteSpace=wrap;html=1;" vertex="1" parent="1">
          <mxGeometry x="180" y="190" width="300" height="110" as="geometry" />
        </mxCell>
        <mxCell id="sHdxlEWxRk9N-xYbiK_3-3" style="rounded=0;orthogonalLoop=1;jettySize=auto;html=1;exitX=1;exitY=0.5;exitDx=0;exitDy=0;" edge="1" parent="1" source="sHdxlEWxRk9N-xYbiK_3-1">
          <mxGeometry relative="1" as="geometry">
            <mxPoint x="440" y="119.9230769230769" as="targetPoint" />
          </mxGeometry>
        </mxCell>
        <mxCell id="sHdxlEWxRk9N-xYbiK_3-1" value="Control System" style="rounded=0;whiteSpace=wrap;html=1;" vertex="1" parent="1">
          <mxGeometry x="260" y="90" width="120" height="60" as="geometry" />
        </mxCell>
        <mxCell id="sHdxlEWxRk9N-xYbiK_3-2" value="" style="endArrow=classic;html=1;rounded=0;entryX=0;entryY=0.5;entryDx=0;entryDy=0;" edge="1" parent="1" target="sHdxlEWxRk9N-xYbiK_3-1">
          <mxGeometry width="50" height="50" relative="1" as="geometry">
            <mxPoint x="200" y="120" as="sourcePoint" />
            <mxPoint x="190" y="100" as="targetPoint" />
          </mxGeometry>
        </mxCell>
        <mxCell id="sHdxlEWxRk9N-xYbiK_3-6" value="Input; stimulus" style="text;html=1;strokeColor=none;fillColor=none;align=center;verticalAlign=middle;whiteSpace=wrap;rounded=0;" vertex="1" parent="1">
          <mxGeometry x="140" y="105" width="60" height="30" as="geometry" />
        </mxCell>
        <mxCell id="sHdxlEWxRk9N-xYbiK_3-7" value="Output; response" style="text;html=1;strokeColor=none;fillColor=none;align=center;verticalAlign=middle;whiteSpace=wrap;rounded=0;" vertex="1" parent="1">
          <mxGeometry x="440" y="105" width="60" height="30" as="geometry" />
        </mxCell>
        <mxCell id="sHdxlEWxRk9N-xYbiK_3-23" style="edgeStyle=none;rounded=0;orthogonalLoop=1;jettySize=auto;html=1;exitX=0;exitY=0.5;exitDx=0;exitDy=0;entryX=0;entryY=0.5;entryDx=0;entryDy=0;" edge="1" parent="1" source="sHdxlEWxRk9N-xYbiK_3-9" target="sHdxlEWxRk9N-xYbiK_3-16">
          <mxGeometry relative="1" as="geometry" />
        </mxCell>
        <mxCell id="sHdxlEWxRk9N-xYbiK_3-10" value="" style="endArrow=none;dashed=1;html=1;dashPattern=1 3;strokeWidth=2;rounded=0;exitX=0;exitY=0;exitDx=0;exitDy=0;entryX=0;entryY=1;entryDx=0;entryDy=0;" edge="1" parent="1" source="sHdxlEWxRk9N-xYbiK_3-9" target="sHdxlEWxRk9N-xYbiK_3-1">
          <mxGeometry width="50" height="50" relative="1" as="geometry">
            <mxPoint x="240" y="220" as="sourcePoint" />
            <mxPoint x="290" y="170" as="targetPoint" />
          </mxGeometry>
        </mxCell>
        <mxCell id="sHdxlEWxRk9N-xYbiK_3-11" value="" style="endArrow=none;dashed=1;html=1;dashPattern=1 3;strokeWidth=2;rounded=0;entryX=1;entryY=1;entryDx=0;entryDy=0;exitX=1;exitY=0;exitDx=0;exitDy=0;" edge="1" parent="1" source="sHdxlEWxRk9N-xYbiK_3-9" target="sHdxlEWxRk9N-xYbiK_3-1">
          <mxGeometry width="50" height="50" relative="1" as="geometry">
            <mxPoint x="420" y="220" as="sourcePoint" />
            <mxPoint x="470" y="170" as="targetPoint" />
          </mxGeometry>
        </mxCell>
        <mxCell id="sHdxlEWxRk9N-xYbiK_3-18" style="edgeStyle=none;rounded=0;orthogonalLoop=1;jettySize=auto;html=1;exitX=1;exitY=0.5;exitDx=0;exitDy=0;entryX=0;entryY=0.5;entryDx=0;entryDy=0;" edge="1" parent="1" source="sHdxlEWxRk9N-xYbiK_3-16" target="sHdxlEWxRk9N-xYbiK_3-17">
          <mxGeometry relative="1" as="geometry" />
        </mxCell>
        <mxCell id="sHdxlEWxRk9N-xYbiK_3-20" style="edgeStyle=none;rounded=0;orthogonalLoop=1;jettySize=auto;html=1;exitX=0.5;exitY=1;exitDx=0;exitDy=0;entryX=0;entryY=0.5;entryDx=0;entryDy=0;" edge="1" parent="1" source="sHdxlEWxRk9N-xYbiK_3-16" target="sHdxlEWxRk9N-xYbiK_3-19">
          <mxGeometry relative="1" as="geometry" />
        </mxCell>
        <mxCell id="sHdxlEWxRk9N-xYbiK_3-16" value="Subsystem" style="rounded=0;whiteSpace=wrap;html=1;" vertex="1" parent="1">
          <mxGeometry x="200" y="205" width="120" height="35" as="geometry" />
        </mxCell>
        <mxCell id="sHdxlEWxRk9N-xYbiK_3-22" style="edgeStyle=none;rounded=0;orthogonalLoop=1;jettySize=auto;html=1;exitX=1;exitY=0.5;exitDx=0;exitDy=0;entryX=1;entryY=0.5;entryDx=0;entryDy=0;" edge="1" parent="1" source="sHdxlEWxRk9N-xYbiK_3-17" target="sHdxlEWxRk9N-xYbiK_3-9">
          <mxGeometry relative="1" as="geometry" />
        </mxCell>
        <mxCell id="sHdxlEWxRk9N-xYbiK_3-17" value="Plant" style="rounded=0;whiteSpace=wrap;html=1;" vertex="1" parent="1">
          <mxGeometry x="350" y="205" width="110" height="35" as="geometry" />
        </mxCell>
        <mxCell id="sHdxlEWxRk9N-xYbiK_3-21" style="edgeStyle=none;rounded=0;orthogonalLoop=1;jettySize=auto;html=1;exitX=1;exitY=0.5;exitDx=0;exitDy=0;entryX=1;entryY=0.5;entryDx=0;entryDy=0;" edge="1" parent="1" source="sHdxlEWxRk9N-xYbiK_3-19" target="sHdxlEWxRk9N-xYbiK_3-9">
          <mxGeometry relative="1" as="geometry" />
        </mxCell>
        <mxCell id="sHdxlEWxRk9N-xYbiK_3-19" value="Subsystem" style="rounded=0;whiteSpace=wrap;html=1;" vertex="1" parent="1">
          <mxGeometry x="310" y="250" width="120" height="35" as="geometry" />
        </mxCell>
      </root>
    </mxGraphModel>
  </diagram>
  <diagram id="XDf5jmnGI0x9RiuVgY4J" name="process">
    <mxGraphModel dx="833" dy="572" grid="1" gridSize="10" guides="1" tooltips="1" connect="1" arrows="1" fold="1" page="1" pageScale="1" pageWidth="3300" pageHeight="2339" math="0" shadow="0">
      <root>
        <mxCell id="0" />
        <mxCell id="1" parent="0" />
        <mxCell id="liMYwKACZFmiGCwgzwla-4" style="edgeStyle=none;rounded=0;orthogonalLoop=1;jettySize=auto;html=1;exitX=1;exitY=0.5;exitDx=0;exitDy=0;entryX=0;entryY=0.5;entryDx=0;entryDy=0;" edge="1" parent="1" source="liMYwKACZFmiGCwgzwla-1" target="liMYwKACZFmiGCwgzwla-2">
          <mxGeometry relative="1" as="geometry" />
        </mxCell>
        <mxCell id="liMYwKACZFmiGCwgzwla-1" value="Controller" style="rounded=0;whiteSpace=wrap;html=1;" vertex="1" parent="1">
          <mxGeometry x="440" y="160" width="120" height="60" as="geometry" />
        </mxCell>
        <mxCell id="liMYwKACZFmiGCwgzwla-5" style="edgeStyle=none;rounded=0;orthogonalLoop=1;jettySize=auto;html=1;exitX=1;exitY=0.5;exitDx=0;exitDy=0;entryX=0;entryY=0.5;entryDx=0;entryDy=0;" edge="1" parent="1" source="liMYwKACZFmiGCwgzwla-2" target="liMYwKACZFmiGCwgzwla-3">
          <mxGeometry relative="1" as="geometry" />
        </mxCell>
        <mxCell id="liMYwKACZFmiGCwgzwla-2" value="Actuator" style="rounded=0;whiteSpace=wrap;html=1;" vertex="1" parent="1">
          <mxGeometry x="600" y="160" width="120" height="60" as="geometry" />
        </mxCell>
        <mxCell id="liMYwKACZFmiGCwgzwla-6" style="edgeStyle=none;rounded=0;orthogonalLoop=1;jettySize=auto;html=1;exitX=1;exitY=0.5;exitDx=0;exitDy=0;" edge="1" parent="1" source="liMYwKACZFmiGCwgzwla-3">
          <mxGeometry relative="1" as="geometry">
            <mxPoint x="920" y="189.90476190476193" as="targetPoint" />
          </mxGeometry>
        </mxCell>
        <mxCell id="liMYwKACZFmiGCwgzwla-3" value="Process" style="rounded=0;whiteSpace=wrap;html=1;" vertex="1" parent="1">
          <mxGeometry x="760" y="160" width="120" height="60" as="geometry" />
        </mxCell>
        <mxCell id="liMYwKACZFmiGCwgzwla-7" value="Output" style="text;html=1;strokeColor=none;fillColor=none;align=center;verticalAlign=middle;whiteSpace=wrap;rounded=0;" vertex="1" parent="1">
          <mxGeometry x="910" y="175" width="60" height="30" as="geometry" />
        </mxCell>
        <mxCell id="liMYwKACZFmiGCwgzwla-9" style="edgeStyle=none;rounded=0;orthogonalLoop=1;jettySize=auto;html=1;exitX=1;exitY=0.5;exitDx=0;exitDy=0;entryX=0;entryY=0.5;entryDx=0;entryDy=0;" edge="1" parent="1" source="liMYwKACZFmiGCwgzwla-8" target="liMYwKACZFmiGCwgzwla-1">
          <mxGeometry relative="1" as="geometry" />
        </mxCell>
        <mxCell id="liMYwKACZFmiGCwgzwla-8" value="Desired output response/state" style="text;html=1;strokeColor=none;fillColor=none;align=center;verticalAlign=middle;whiteSpace=wrap;rounded=0;" vertex="1" parent="1">
          <mxGeometry x="310" y="175" width="90" height="30" as="geometry" />
        </mxCell>
      </root>
    </mxGraphModel>
  </diagram>
  <diagram id="Sc8-MHI9FwztyJxciXVO" name="open-loop">
    <mxGraphModel dx="1399" dy="962" grid="1" gridSize="10" guides="1" tooltips="1" connect="1" arrows="1" fold="1" page="1" pageScale="1" pageWidth="3300" pageHeight="2339" math="0" shadow="0">
      <root>
        <mxCell id="0" />
        <mxCell id="1" parent="0" />
        <mxCell id="PvnQlpKg4F0GHCBtcJ4N-11" style="edgeStyle=none;rounded=0;orthogonalLoop=1;jettySize=auto;html=1;exitX=1;exitY=0.5;exitDx=0;exitDy=0;exitPerimeter=0;entryX=0;entryY=0.5;entryDx=0;entryDy=0;" edge="1" parent="1" source="PvnQlpKg4F0GHCBtcJ4N-2" target="PvnQlpKg4F0GHCBtcJ4N-7">
          <mxGeometry relative="1" as="geometry" />
        </mxCell>
        <mxCell id="PvnQlpKg4F0GHCBtcJ4N-2" value="" style="verticalLabelPosition=bottom;verticalAlign=top;html=1;shape=mxgraph.flowchart.or;" vertex="1" parent="1">
          <mxGeometry x="410" y="70.25" width="39.5" height="39.5" as="geometry" />
        </mxCell>
        <mxCell id="PvnQlpKg4F0GHCBtcJ4N-12" style="edgeStyle=none;rounded=0;orthogonalLoop=1;jettySize=auto;html=1;exitX=1;exitY=0.5;exitDx=0;exitDy=0;entryX=0;entryY=0.5;entryDx=0;entryDy=0;" edge="1" parent="1" source="PvnQlpKg4F0GHCBtcJ4N-3" target="PvnQlpKg4F0GHCBtcJ4N-4">
          <mxGeometry relative="1" as="geometry" />
        </mxCell>
        <mxCell id="PvnQlpKg4F0GHCBtcJ4N-3" value="Input transducer" style="rounded=0;whiteSpace=wrap;html=1;" vertex="1" parent="1">
          <mxGeometry x="90" y="60" width="120" height="60" as="geometry" />
        </mxCell>
        <mxCell id="PvnQlpKg4F0GHCBtcJ4N-4" value="Controller" style="rounded=0;whiteSpace=wrap;html=1;" vertex="1" parent="1">
          <mxGeometry x="250" y="60" width="120" height="60" as="geometry" />
        </mxCell>
        <mxCell id="PvnQlpKg4F0GHCBtcJ4N-5" style="edgeStyle=none;rounded=0;orthogonalLoop=1;jettySize=auto;html=1;exitX=1;exitY=0.5;exitDx=0;exitDy=0;entryX=0;entryY=0.5;entryDx=0;entryDy=0;entryPerimeter=0;" edge="1" parent="1" source="PvnQlpKg4F0GHCBtcJ4N-4" target="PvnQlpKg4F0GHCBtcJ4N-2">
          <mxGeometry relative="1" as="geometry" />
        </mxCell>
        <mxCell id="PvnQlpKg4F0GHCBtcJ4N-6" value="" style="endArrow=classic;html=1;rounded=0;entryX=0.5;entryY=0;entryDx=0;entryDy=0;entryPerimeter=0;exitX=0.5;exitY=1;exitDx=0;exitDy=0;" edge="1" parent="1" source="PvnQlpKg4F0GHCBtcJ4N-13" target="PvnQlpKg4F0GHCBtcJ4N-2">
          <mxGeometry width="50" height="50" relative="1" as="geometry">
            <mxPoint x="430" y="40" as="sourcePoint" />
            <mxPoint x="470" y="-30" as="targetPoint" />
          </mxGeometry>
        </mxCell>
        <mxCell id="PvnQlpKg4F0GHCBtcJ4N-7" value="Process/Plant" style="rounded=0;whiteSpace=wrap;html=1;" vertex="1" parent="1">
          <mxGeometry x="490" y="60" width="120" height="60" as="geometry" />
        </mxCell>
        <mxCell id="PvnQlpKg4F0GHCBtcJ4N-9" value="+" style="text;html=1;strokeColor=none;fillColor=none;align=center;verticalAlign=middle;whiteSpace=wrap;rounded=0;" vertex="1" parent="1">
          <mxGeometry x="416" y="50" width="10" height="10" as="geometry" />
        </mxCell>
        <mxCell id="PvnQlpKg4F0GHCBtcJ4N-10" value="+" style="text;html=1;strokeColor=none;fillColor=none;align=center;verticalAlign=middle;whiteSpace=wrap;rounded=0;" vertex="1" parent="1">
          <mxGeometry x="392" y="76" width="10" height="10" as="geometry" />
        </mxCell>
        <mxCell id="PvnQlpKg4F0GHCBtcJ4N-13" value="Disturbance 1" style="text;html=1;strokeColor=none;fillColor=none;align=center;verticalAlign=middle;whiteSpace=wrap;rounded=0;" vertex="1" parent="1">
          <mxGeometry x="374.75" y="20" width="110" height="20" as="geometry" />
        </mxCell>
        <mxCell id="PvnQlpKg4F0GHCBtcJ4N-16" style="edgeStyle=none;rounded=0;orthogonalLoop=1;jettySize=auto;html=1;exitX=1;exitY=0.5;exitDx=0;exitDy=0;exitPerimeter=0;entryX=0;entryY=0.5;entryDx=0;entryDy=0;" edge="1" parent="1" source="PvnQlpKg4F0GHCBtcJ4N-14" target="PvnQlpKg4F0GHCBtcJ4N-19">
          <mxGeometry relative="1" as="geometry">
            <mxPoint x="750" y="89.90476190476193" as="targetPoint" />
          </mxGeometry>
        </mxCell>
        <mxCell id="PvnQlpKg4F0GHCBtcJ4N-14" value="" style="verticalLabelPosition=bottom;verticalAlign=top;html=1;shape=mxgraph.flowchart.or;" vertex="1" parent="1">
          <mxGeometry x="650" y="70.25" width="39.5" height="39.5" as="geometry" />
        </mxCell>
        <mxCell id="PvnQlpKg4F0GHCBtcJ4N-15" style="edgeStyle=none;rounded=0;orthogonalLoop=1;jettySize=auto;html=1;exitX=1;exitY=0.5;exitDx=0;exitDy=0;entryX=0;entryY=0.5;entryDx=0;entryDy=0;entryPerimeter=0;" edge="1" parent="1" source="PvnQlpKg4F0GHCBtcJ4N-7" target="PvnQlpKg4F0GHCBtcJ4N-14">
          <mxGeometry relative="1" as="geometry" />
        </mxCell>
        <mxCell id="PvnQlpKg4F0GHCBtcJ4N-17" value="Summing junction" style="text;html=1;strokeColor=none;fillColor=none;align=center;verticalAlign=middle;whiteSpace=wrap;rounded=0;fontStyle=2" vertex="1" parent="1">
          <mxGeometry x="400" y="120" width="60" height="30" as="geometry" />
        </mxCell>
        <mxCell id="PvnQlpKg4F0GHCBtcJ4N-18" value="Summing junction" style="text;html=1;strokeColor=none;fillColor=none;align=center;verticalAlign=middle;whiteSpace=wrap;rounded=0;fontStyle=2" vertex="1" parent="1">
          <mxGeometry x="639.75" y="120" width="60" height="30" as="geometry" />
        </mxCell>
        <mxCell id="PvnQlpKg4F0GHCBtcJ4N-19" value="Output or controlled variable" style="text;html=1;strokeColor=none;fillColor=none;align=center;verticalAlign=middle;whiteSpace=wrap;rounded=0;" vertex="1" parent="1">
          <mxGeometry x="740" y="67.5" width="70" height="45" as="geometry" />
        </mxCell>
        <mxCell id="PvnQlpKg4F0GHCBtcJ4N-20" value="" style="endArrow=classic;html=1;rounded=0;entryX=0.5;entryY=0;entryDx=0;entryDy=0;entryPerimeter=0;exitX=0.5;exitY=1;exitDx=0;exitDy=0;" edge="1" parent="1" source="PvnQlpKg4F0GHCBtcJ4N-22" target="PvnQlpKg4F0GHCBtcJ4N-14">
          <mxGeometry width="50" height="50" relative="1" as="geometry">
            <mxPoint x="670" y="40" as="sourcePoint" />
            <mxPoint x="440" y="80" as="targetPoint" />
          </mxGeometry>
        </mxCell>
        <mxCell id="PvnQlpKg4F0GHCBtcJ4N-22" value="Disturbance 2" style="text;html=1;strokeColor=none;fillColor=none;align=center;verticalAlign=middle;whiteSpace=wrap;rounded=0;" vertex="1" parent="1">
          <mxGeometry x="614.75" y="20" width="110" height="20" as="geometry" />
        </mxCell>
        <mxCell id="PvnQlpKg4F0GHCBtcJ4N-23" value="+" style="text;html=1;strokeColor=none;fillColor=none;align=center;verticalAlign=middle;whiteSpace=wrap;rounded=0;" vertex="1" parent="1">
          <mxGeometry x="654" y="50" width="10" height="10" as="geometry" />
        </mxCell>
        <mxCell id="PvnQlpKg4F0GHCBtcJ4N-24" value="+" style="text;html=1;strokeColor=none;fillColor=none;align=center;verticalAlign=middle;whiteSpace=wrap;rounded=0;" vertex="1" parent="1">
          <mxGeometry x="630" y="76" width="10" height="10" as="geometry" />
        </mxCell>
        <mxCell id="PvnQlpKg4F0GHCBtcJ4N-26" style="edgeStyle=none;rounded=0;orthogonalLoop=1;jettySize=auto;html=1;exitX=1;exitY=0.5;exitDx=0;exitDy=0;entryX=0;entryY=0.5;entryDx=0;entryDy=0;" edge="1" parent="1" source="PvnQlpKg4F0GHCBtcJ4N-25" target="PvnQlpKg4F0GHCBtcJ4N-3">
          <mxGeometry relative="1" as="geometry" />
        </mxCell>
        <mxCell id="PvnQlpKg4F0GHCBtcJ4N-25" value="Input" style="text;html=1;strokeColor=none;fillColor=none;align=center;verticalAlign=middle;whiteSpace=wrap;rounded=0;" vertex="1" parent="1">
          <mxGeometry x="10" y="75" width="30" height="30" as="geometry" />
        </mxCell>
      </root>
    </mxGraphModel>
  </diagram>
  <diagram id="LeojkE1bJbRSFF-IYf7U" name="closed-loop">
    <mxGraphModel dx="853" dy="586" grid="1" gridSize="10" guides="1" tooltips="1" connect="1" arrows="1" fold="1" page="1" pageScale="1" pageWidth="3300" pageHeight="2339" math="0" shadow="0">
      <root>
        <mxCell id="0" />
        <mxCell id="1" parent="0" />
        <mxCell id="vTKsBLRDBJMg1BX96Y9A-1" style="edgeStyle=none;rounded=0;orthogonalLoop=1;jettySize=auto;html=1;exitX=1;exitY=0.5;exitDx=0;exitDy=0;exitPerimeter=0;entryX=0;entryY=0.5;entryDx=0;entryDy=0;" edge="1" parent="1" source="vTKsBLRDBJMg1BX96Y9A-2" target="vTKsBLRDBJMg1BX96Y9A-8">
          <mxGeometry relative="1" as="geometry" />
        </mxCell>
        <mxCell id="vTKsBLRDBJMg1BX96Y9A-2" value="" style="verticalLabelPosition=bottom;verticalAlign=top;html=1;shape=mxgraph.flowchart.or;" vertex="1" parent="1">
          <mxGeometry x="472.5" y="70.25" width="39.5" height="39.5" as="geometry" />
        </mxCell>
        <mxCell id="vTKsBLRDBJMg1BX96Y9A-4" value="Input transducer" style="rounded=0;whiteSpace=wrap;html=1;" vertex="1" parent="1">
          <mxGeometry x="80" y="60" width="120" height="60" as="geometry" />
        </mxCell>
        <mxCell id="vTKsBLRDBJMg1BX96Y9A-5" value="Controller" style="rounded=0;whiteSpace=wrap;html=1;" vertex="1" parent="1">
          <mxGeometry x="310" y="60" width="120" height="60" as="geometry" />
        </mxCell>
        <mxCell id="vTKsBLRDBJMg1BX96Y9A-6" style="edgeStyle=none;rounded=0;orthogonalLoop=1;jettySize=auto;html=1;exitX=1;exitY=0.5;exitDx=0;exitDy=0;entryX=0;entryY=0.5;entryDx=0;entryDy=0;entryPerimeter=0;" edge="1" parent="1" source="vTKsBLRDBJMg1BX96Y9A-5" target="vTKsBLRDBJMg1BX96Y9A-2">
          <mxGeometry relative="1" as="geometry" />
        </mxCell>
        <mxCell id="vTKsBLRDBJMg1BX96Y9A-7" value="" style="endArrow=classic;html=1;rounded=0;entryX=0.5;entryY=0;entryDx=0;entryDy=0;entryPerimeter=0;exitX=0.5;exitY=1;exitDx=0;exitDy=0;" edge="1" parent="1" source="vTKsBLRDBJMg1BX96Y9A-11" target="vTKsBLRDBJMg1BX96Y9A-2">
          <mxGeometry width="50" height="50" relative="1" as="geometry">
            <mxPoint x="550" y="20" as="sourcePoint" />
            <mxPoint x="590" y="-50" as="targetPoint" />
          </mxGeometry>
        </mxCell>
        <mxCell id="vTKsBLRDBJMg1BX96Y9A-8" value="Process/Plant" style="rounded=0;whiteSpace=wrap;html=1;" vertex="1" parent="1">
          <mxGeometry x="550" y="60" width="120" height="60" as="geometry" />
        </mxCell>
        <mxCell id="vTKsBLRDBJMg1BX96Y9A-9" value="+" style="text;html=1;strokeColor=none;fillColor=none;align=center;verticalAlign=middle;whiteSpace=wrap;rounded=0;" vertex="1" parent="1">
          <mxGeometry x="477" y="53" width="10" height="10" as="geometry" />
        </mxCell>
        <mxCell id="vTKsBLRDBJMg1BX96Y9A-10" value="+" style="text;html=1;strokeColor=none;fillColor=none;align=center;verticalAlign=middle;whiteSpace=wrap;rounded=0;" vertex="1" parent="1">
          <mxGeometry x="454" y="76" width="10" height="10" as="geometry" />
        </mxCell>
        <mxCell id="vTKsBLRDBJMg1BX96Y9A-11" value="Disturbance 1" style="text;html=1;strokeColor=none;fillColor=none;align=center;verticalAlign=middle;whiteSpace=wrap;rounded=0;" vertex="1" parent="1">
          <mxGeometry x="437.25" y="10" width="110" height="20" as="geometry" />
        </mxCell>
        <mxCell id="vTKsBLRDBJMg1BX96Y9A-12" style="edgeStyle=none;rounded=0;orthogonalLoop=1;jettySize=auto;html=1;exitX=1;exitY=0.5;exitDx=0;exitDy=0;exitPerimeter=0;entryX=0;entryY=0.5;entryDx=0;entryDy=0;" edge="1" parent="1" source="vTKsBLRDBJMg1BX96Y9A-13" target="vTKsBLRDBJMg1BX96Y9A-17">
          <mxGeometry relative="1" as="geometry">
            <mxPoint x="825.25" y="89.90476190476193" as="targetPoint" />
          </mxGeometry>
        </mxCell>
        <mxCell id="vTKsBLRDBJMg1BX96Y9A-28" style="edgeStyle=orthogonalEdgeStyle;rounded=0;orthogonalLoop=1;jettySize=auto;html=1;exitX=1;exitY=0.5;exitDx=0;exitDy=0;exitPerimeter=0;entryX=1;entryY=0.5;entryDx=0;entryDy=0;" edge="1" parent="1" source="vTKsBLRDBJMg1BX96Y9A-13" target="vTKsBLRDBJMg1BX96Y9A-29">
          <mxGeometry relative="1" as="geometry">
            <mxPoint x="860" y="210" as="targetPoint" />
            <Array as="points">
              <mxPoint x="810" y="90" />
              <mxPoint x="810" y="210" />
            </Array>
          </mxGeometry>
        </mxCell>
        <mxCell id="vTKsBLRDBJMg1BX96Y9A-13" value="" style="verticalLabelPosition=bottom;verticalAlign=top;html=1;shape=mxgraph.flowchart.or;" vertex="1" parent="1">
          <mxGeometry x="725.25" y="70.25" width="39.5" height="39.5" as="geometry" />
        </mxCell>
        <mxCell id="vTKsBLRDBJMg1BX96Y9A-14" style="edgeStyle=none;rounded=0;orthogonalLoop=1;jettySize=auto;html=1;exitX=1;exitY=0.5;exitDx=0;exitDy=0;entryX=0;entryY=0.5;entryDx=0;entryDy=0;entryPerimeter=0;" edge="1" parent="1" source="vTKsBLRDBJMg1BX96Y9A-8" target="vTKsBLRDBJMg1BX96Y9A-13">
          <mxGeometry relative="1" as="geometry" />
        </mxCell>
        <mxCell id="vTKsBLRDBJMg1BX96Y9A-15" value="Summing junction" style="text;html=1;strokeColor=none;fillColor=none;align=center;verticalAlign=middle;whiteSpace=wrap;rounded=0;fontStyle=2" vertex="1" parent="1">
          <mxGeometry x="462.25" y="120" width="60" height="30" as="geometry" />
        </mxCell>
        <mxCell id="vTKsBLRDBJMg1BX96Y9A-16" value="Summing junction" style="text;html=1;strokeColor=none;fillColor=none;align=center;verticalAlign=middle;whiteSpace=wrap;rounded=0;fontStyle=2" vertex="1" parent="1">
          <mxGeometry x="715" y="120" width="60" height="30" as="geometry" />
        </mxCell>
        <mxCell id="vTKsBLRDBJMg1BX96Y9A-17" value="Output or controlled variable" style="text;html=1;strokeColor=none;fillColor=none;align=center;verticalAlign=middle;whiteSpace=wrap;rounded=0;" vertex="1" parent="1">
          <mxGeometry x="850" y="67.5" width="70" height="45" as="geometry" />
        </mxCell>
        <mxCell id="vTKsBLRDBJMg1BX96Y9A-18" value="" style="endArrow=classic;html=1;rounded=0;entryX=0.5;entryY=0;entryDx=0;entryDy=0;entryPerimeter=0;exitX=0.5;exitY=1;exitDx=0;exitDy=0;" edge="1" parent="1" source="vTKsBLRDBJMg1BX96Y9A-19" target="vTKsBLRDBJMg1BX96Y9A-13">
          <mxGeometry width="50" height="50" relative="1" as="geometry">
            <mxPoint x="745.25" y="40" as="sourcePoint" />
            <mxPoint x="515.25" y="80" as="targetPoint" />
          </mxGeometry>
        </mxCell>
        <mxCell id="vTKsBLRDBJMg1BX96Y9A-19" value="Disturbance 2" style="text;html=1;strokeColor=none;fillColor=none;align=center;verticalAlign=middle;whiteSpace=wrap;rounded=0;" vertex="1" parent="1">
          <mxGeometry x="690" y="20" width="110" height="20" as="geometry" />
        </mxCell>
        <mxCell id="vTKsBLRDBJMg1BX96Y9A-20" value="+" style="text;html=1;strokeColor=none;fillColor=none;align=center;verticalAlign=middle;whiteSpace=wrap;rounded=0;" vertex="1" parent="1">
          <mxGeometry x="729.25" y="50" width="10" height="10" as="geometry" />
        </mxCell>
        <mxCell id="vTKsBLRDBJMg1BX96Y9A-21" value="+" style="text;html=1;strokeColor=none;fillColor=none;align=center;verticalAlign=middle;whiteSpace=wrap;rounded=0;" vertex="1" parent="1">
          <mxGeometry x="705.25" y="76" width="10" height="10" as="geometry" />
        </mxCell>
        <mxCell id="vTKsBLRDBJMg1BX96Y9A-22" style="edgeStyle=none;rounded=0;orthogonalLoop=1;jettySize=auto;html=1;exitX=1;exitY=0.5;exitDx=0;exitDy=0;entryX=0;entryY=0.5;entryDx=0;entryDy=0;" edge="1" parent="1" source="vTKsBLRDBJMg1BX96Y9A-23" target="vTKsBLRDBJMg1BX96Y9A-4">
          <mxGeometry relative="1" as="geometry" />
        </mxCell>
        <mxCell id="vTKsBLRDBJMg1BX96Y9A-23" value="Input" style="text;html=1;strokeColor=none;fillColor=none;align=center;verticalAlign=middle;whiteSpace=wrap;rounded=0;" vertex="1" parent="1">
          <mxGeometry x="10" y="75" width="30" height="30" as="geometry" />
        </mxCell>
        <mxCell id="vTKsBLRDBJMg1BX96Y9A-26" style="edgeStyle=none;rounded=0;orthogonalLoop=1;jettySize=auto;html=1;exitX=1;exitY=0.5;exitDx=0;exitDy=0;exitPerimeter=0;entryX=0;entryY=0.5;entryDx=0;entryDy=0;" edge="1" parent="1" source="vTKsBLRDBJMg1BX96Y9A-24" target="vTKsBLRDBJMg1BX96Y9A-5">
          <mxGeometry relative="1" as="geometry" />
        </mxCell>
        <mxCell id="vTKsBLRDBJMg1BX96Y9A-24" value="" style="verticalLabelPosition=bottom;verticalAlign=top;html=1;shape=mxgraph.flowchart.or;" vertex="1" parent="1">
          <mxGeometry x="240" y="70.25" width="39.5" height="39.5" as="geometry" />
        </mxCell>
        <mxCell id="vTKsBLRDBJMg1BX96Y9A-25" style="edgeStyle=none;rounded=0;orthogonalLoop=1;jettySize=auto;html=1;exitX=1;exitY=0.5;exitDx=0;exitDy=0;entryX=0;entryY=0.5;entryDx=0;entryDy=0;entryPerimeter=0;" edge="1" parent="1" source="vTKsBLRDBJMg1BX96Y9A-4" target="vTKsBLRDBJMg1BX96Y9A-24">
          <mxGeometry relative="1" as="geometry" />
        </mxCell>
        <mxCell id="vTKsBLRDBJMg1BX96Y9A-27" value="+" style="text;html=1;strokeColor=none;fillColor=none;align=center;verticalAlign=middle;whiteSpace=wrap;rounded=0;" vertex="1" parent="1">
          <mxGeometry x="220" y="75" width="10" height="10" as="geometry" />
        </mxCell>
        <mxCell id="vTKsBLRDBJMg1BX96Y9A-29" value="Output transducer or Sensor" style="rounded=0;whiteSpace=wrap;html=1;" vertex="1" parent="1">
          <mxGeometry x="432" y="180" width="120" height="60" as="geometry" />
        </mxCell>
        <mxCell id="vTKsBLRDBJMg1BX96Y9A-30" style="edgeStyle=orthogonalEdgeStyle;rounded=0;orthogonalLoop=1;jettySize=auto;html=1;exitX=0;exitY=0.5;exitDx=0;exitDy=0;entryX=0.5;entryY=1;entryDx=0;entryDy=0;entryPerimeter=0;" edge="1" parent="1" source="vTKsBLRDBJMg1BX96Y9A-29" target="vTKsBLRDBJMg1BX96Y9A-24">
          <mxGeometry relative="1" as="geometry" />
        </mxCell>
        <mxCell id="vTKsBLRDBJMg1BX96Y9A-31" value="-" style="text;html=1;strokeColor=none;fillColor=none;align=center;verticalAlign=middle;whiteSpace=wrap;rounded=0;" vertex="1" parent="1">
          <mxGeometry x="246" y="115" width="10" height="10" as="geometry" />
        </mxCell>
        <mxCell id="vTKsBLRDBJMg1BX96Y9A-32" value="Error signal" style="text;html=1;strokeColor=none;fillColor=none;align=center;verticalAlign=middle;whiteSpace=wrap;rounded=0;" vertex="1" parent="1">
          <mxGeometry x="230" y="33" width="60" height="30" as="geometry" />
        </mxCell>
      </root>
    </mxGraphModel>
  </diagram>
  <diagram id="4XV4e1dS5NrBrCOrNK_v" name="car-example">
    <mxGraphModel dx="2186" dy="1503" grid="1" gridSize="10" guides="1" tooltips="1" connect="1" arrows="1" fold="1" page="1" pageScale="1" pageWidth="3300" pageHeight="2339" math="1" shadow="0">
      <root>
        <mxCell id="0" />
        <mxCell id="1" parent="0" />
        <mxCell id="-5w7G1Fux8MIxDP2F4Vn-34" value="" style="rounded=0;whiteSpace=wrap;html=1;" vertex="1" parent="1">
          <mxGeometry x="210" y="330" width="397.69" height="235" as="geometry" />
        </mxCell>
        <mxCell id="xchT3Wdl2c2zRMacQmHl-2" value="Desired course of travel" style="text;html=1;strokeColor=none;fillColor=none;align=center;verticalAlign=middle;whiteSpace=wrap;rounded=0;fontColor=#7EA6E0;" vertex="1" parent="1">
          <mxGeometry x="20" y="115" width="60" height="30" as="geometry" />
        </mxCell>
        <mxCell id="-5w7G1Fux8MIxDP2F4Vn-1" style="edgeStyle=none;rounded=0;orthogonalLoop=1;jettySize=auto;html=1;exitX=1;exitY=0.5;exitDx=0;exitDy=0;exitPerimeter=0;entryX=0;entryY=0.5;entryDx=0;entryDy=0;" edge="1" parent="1" source="-5w7G1Fux8MIxDP2F4Vn-2" target="-5w7G1Fux8MIxDP2F4Vn-6">
          <mxGeometry relative="1" as="geometry" />
        </mxCell>
        <mxCell id="-5w7G1Fux8MIxDP2F4Vn-2" value="" style="verticalLabelPosition=bottom;verticalAlign=top;html=1;shape=mxgraph.flowchart.or;" vertex="1" parent="1">
          <mxGeometry x="352.5" y="110.25" width="39.5" height="39.5" as="geometry" />
        </mxCell>
        <mxCell id="-5w7G1Fux8MIxDP2F4Vn-3" value="Driver" style="rounded=0;whiteSpace=wrap;html=1;" vertex="1" parent="1">
          <mxGeometry x="190" y="100" width="120" height="60" as="geometry" />
        </mxCell>
        <mxCell id="-5w7G1Fux8MIxDP2F4Vn-4" style="edgeStyle=none;rounded=0;orthogonalLoop=1;jettySize=auto;html=1;exitX=1;exitY=0.5;exitDx=0;exitDy=0;entryX=0;entryY=0.5;entryDx=0;entryDy=0;entryPerimeter=0;" edge="1" parent="1" source="-5w7G1Fux8MIxDP2F4Vn-3" target="-5w7G1Fux8MIxDP2F4Vn-2">
          <mxGeometry relative="1" as="geometry" />
        </mxCell>
        <mxCell id="-5w7G1Fux8MIxDP2F4Vn-5" value="" style="endArrow=classic;html=1;rounded=0;entryX=0.5;entryY=0;entryDx=0;entryDy=0;entryPerimeter=0;exitX=0.5;exitY=1;exitDx=0;exitDy=0;" edge="1" parent="1" source="-5w7G1Fux8MIxDP2F4Vn-9" target="-5w7G1Fux8MIxDP2F4Vn-2">
          <mxGeometry width="50" height="50" relative="1" as="geometry">
            <mxPoint x="430" y="60" as="sourcePoint" />
            <mxPoint x="470" y="-10" as="targetPoint" />
          </mxGeometry>
        </mxCell>
        <mxCell id="-5w7G1Fux8MIxDP2F4Vn-6" value="Steering &lt;br&gt;mechanism" style="rounded=0;whiteSpace=wrap;html=1;" vertex="1" parent="1">
          <mxGeometry x="430" y="100" width="120" height="60" as="geometry" />
        </mxCell>
        <mxCell id="-5w7G1Fux8MIxDP2F4Vn-7" value="+" style="text;html=1;strokeColor=none;fillColor=none;align=center;verticalAlign=middle;whiteSpace=wrap;rounded=0;" vertex="1" parent="1">
          <mxGeometry x="357" y="93" width="10" height="10" as="geometry" />
        </mxCell>
        <mxCell id="-5w7G1Fux8MIxDP2F4Vn-8" value="+" style="text;html=1;strokeColor=none;fillColor=none;align=center;verticalAlign=middle;whiteSpace=wrap;rounded=0;" vertex="1" parent="1">
          <mxGeometry x="334" y="116" width="10" height="10" as="geometry" />
        </mxCell>
        <mxCell id="-5w7G1Fux8MIxDP2F4Vn-9" value="unexpected obstacle" style="text;html=1;strokeColor=none;fillColor=none;align=center;verticalAlign=middle;whiteSpace=wrap;rounded=0;" vertex="1" parent="1">
          <mxGeometry x="317.25" y="40" width="110" height="30" as="geometry" />
        </mxCell>
        <mxCell id="-5w7G1Fux8MIxDP2F4Vn-11" style="edgeStyle=orthogonalEdgeStyle;rounded=0;orthogonalLoop=1;jettySize=auto;html=1;exitX=1;exitY=0.5;exitDx=0;exitDy=0;entryX=1;entryY=0.5;entryDx=0;entryDy=0;" edge="1" parent="1" source="-5w7G1Fux8MIxDP2F4Vn-29" target="-5w7G1Fux8MIxDP2F4Vn-24">
          <mxGeometry relative="1" as="geometry">
            <mxPoint x="740" y="250" as="targetPoint" />
            <Array as="points">
              <mxPoint x="760" y="130" />
              <mxPoint x="760" y="250" />
            </Array>
            <mxPoint x="644.75" y="130" as="sourcePoint" />
          </mxGeometry>
        </mxCell>
        <mxCell id="-5w7G1Fux8MIxDP2F4Vn-13" style="edgeStyle=none;rounded=0;orthogonalLoop=1;jettySize=auto;html=1;exitX=1;exitY=0.5;exitDx=0;exitDy=0;entryX=0;entryY=0.5;entryDx=0;entryDy=0;" edge="1" parent="1" source="-5w7G1Fux8MIxDP2F4Vn-6" target="-5w7G1Fux8MIxDP2F4Vn-29">
          <mxGeometry relative="1" as="geometry">
            <mxPoint x="605.25" y="130" as="targetPoint" />
          </mxGeometry>
        </mxCell>
        <mxCell id="-5w7G1Fux8MIxDP2F4Vn-14" value="Summing junction" style="text;html=1;strokeColor=none;fillColor=none;align=center;verticalAlign=middle;whiteSpace=wrap;rounded=0;fontStyle=2" vertex="1" parent="1">
          <mxGeometry x="342.25" y="160" width="60" height="30" as="geometry" />
        </mxCell>
        <mxCell id="-5w7G1Fux8MIxDP2F4Vn-18" value="Disturbance 2" style="text;html=1;strokeColor=none;fillColor=none;align=center;verticalAlign=middle;whiteSpace=wrap;rounded=0;" vertex="1" parent="1">
          <mxGeometry x="570" y="60" width="110" height="20" as="geometry" />
        </mxCell>
        <mxCell id="-5w7G1Fux8MIxDP2F4Vn-21" style="edgeStyle=none;rounded=0;orthogonalLoop=1;jettySize=auto;html=1;exitX=1;exitY=0.5;exitDx=0;exitDy=0;exitPerimeter=0;entryX=0;entryY=0.5;entryDx=0;entryDy=0;" edge="1" parent="1" source="-5w7G1Fux8MIxDP2F4Vn-22" target="-5w7G1Fux8MIxDP2F4Vn-3">
          <mxGeometry relative="1" as="geometry" />
        </mxCell>
        <mxCell id="-5w7G1Fux8MIxDP2F4Vn-22" value="" style="verticalLabelPosition=bottom;verticalAlign=top;html=1;shape=mxgraph.flowchart.or;" vertex="1" parent="1">
          <mxGeometry x="120" y="110.25" width="39.5" height="39.5" as="geometry" />
        </mxCell>
        <mxCell id="-5w7G1Fux8MIxDP2F4Vn-23" value="+" style="text;html=1;strokeColor=none;fillColor=none;align=center;verticalAlign=middle;whiteSpace=wrap;rounded=0;" vertex="1" parent="1">
          <mxGeometry x="100" y="115" width="10" height="10" as="geometry" />
        </mxCell>
        <mxCell id="-5w7G1Fux8MIxDP2F4Vn-24" value="Measurement, &lt;br&gt;visual and tactile" style="rounded=0;whiteSpace=wrap;html=1;" vertex="1" parent="1">
          <mxGeometry x="312" y="220" width="120" height="60" as="geometry" />
        </mxCell>
        <mxCell id="-5w7G1Fux8MIxDP2F4Vn-25" style="edgeStyle=orthogonalEdgeStyle;rounded=0;orthogonalLoop=1;jettySize=auto;html=1;exitX=0;exitY=0.5;exitDx=0;exitDy=0;entryX=0.5;entryY=1;entryDx=0;entryDy=0;entryPerimeter=0;" edge="1" parent="1" source="-5w7G1Fux8MIxDP2F4Vn-24" target="-5w7G1Fux8MIxDP2F4Vn-22">
          <mxGeometry relative="1" as="geometry" />
        </mxCell>
        <mxCell id="-5w7G1Fux8MIxDP2F4Vn-26" value="-" style="text;html=1;strokeColor=none;fillColor=none;align=center;verticalAlign=middle;whiteSpace=wrap;rounded=0;" vertex="1" parent="1">
          <mxGeometry x="126" y="155" width="10" height="10" as="geometry" />
        </mxCell>
        <mxCell id="-5w7G1Fux8MIxDP2F4Vn-27" value="Error signal" style="text;html=1;strokeColor=none;fillColor=none;align=center;verticalAlign=middle;whiteSpace=wrap;rounded=0;" vertex="1" parent="1">
          <mxGeometry x="110" y="73" width="60" height="30" as="geometry" />
        </mxCell>
        <mxCell id="-5w7G1Fux8MIxDP2F4Vn-28" style="edgeStyle=none;rounded=0;orthogonalLoop=1;jettySize=auto;html=1;exitX=1;exitY=0.5;exitDx=0;exitDy=0;entryX=0;entryY=0.5;entryDx=0;entryDy=0;entryPerimeter=0;" edge="1" parent="1" source="xchT3Wdl2c2zRMacQmHl-2" target="-5w7G1Fux8MIxDP2F4Vn-22">
          <mxGeometry relative="1" as="geometry" />
        </mxCell>
        <mxCell id="-5w7G1Fux8MIxDP2F4Vn-30" style="edgeStyle=none;rounded=0;orthogonalLoop=1;jettySize=auto;html=1;exitX=1;exitY=0.5;exitDx=0;exitDy=0;" edge="1" parent="1" source="-5w7G1Fux8MIxDP2F4Vn-29">
          <mxGeometry relative="1" as="geometry">
            <mxPoint x="800" y="129.90476190476193" as="targetPoint" />
          </mxGeometry>
        </mxCell>
        <mxCell id="-5w7G1Fux8MIxDP2F4Vn-29" value="Automobile direction" style="rounded=0;whiteSpace=wrap;html=1;" vertex="1" parent="1">
          <mxGeometry x="590" y="100" width="120" height="60" as="geometry" />
        </mxCell>
        <mxCell id="-5w7G1Fux8MIxDP2F4Vn-31" value="Actual course of travel" style="text;html=1;strokeColor=none;fillColor=none;align=center;verticalAlign=middle;whiteSpace=wrap;rounded=0;fontColor=#FF6666;" vertex="1" parent="1">
          <mxGeometry x="800" y="116" width="60" height="30" as="geometry" />
        </mxCell>
        <mxCell id="-5w7G1Fux8MIxDP2F4Vn-32" value="" style="curved=1;endArrow=none;html=1;rounded=0;strokeColor=#FF6666;strokeWidth=3;endFill=0;entryX=0.996;entryY=0.226;entryDx=0;entryDy=0;entryPerimeter=0;" edge="1" parent="1" target="-5w7G1Fux8MIxDP2F4Vn-34">
          <mxGeometry width="50" height="50" relative="1" as="geometry">
            <mxPoint x="210" y="555" as="sourcePoint" />
            <mxPoint x="764" y="387" as="targetPoint" />
            <Array as="points">
              <mxPoint x="260" y="435" />
              <mxPoint x="410" y="465" />
              <mxPoint x="460" y="375" />
              <mxPoint x="570" y="405" />
            </Array>
          </mxGeometry>
        </mxCell>
        <mxCell id="-5w7G1Fux8MIxDP2F4Vn-33" value="" style="curved=1;endArrow=none;html=1;rounded=0;strokeWidth=3;strokeColor=#7EA6E0;endFill=0;entryX=1;entryY=0.228;entryDx=0;entryDy=0;entryPerimeter=0;" edge="1" parent="1" target="-5w7G1Fux8MIxDP2F4Vn-34">
          <mxGeometry width="50" height="50" relative="1" as="geometry">
            <mxPoint x="210" y="555" as="sourcePoint" />
            <mxPoint x="764" y="397" as="targetPoint" />
            <Array as="points">
              <mxPoint x="220" y="495" />
              <mxPoint x="280" y="425" />
              <mxPoint x="400" y="465" />
              <mxPoint x="460" y="385" />
            </Array>
          </mxGeometry>
        </mxCell>
        <mxCell id="-5w7G1Fux8MIxDP2F4Vn-35" value="" style="endArrow=none;html=1;rounded=0;strokeWidth=3;strokeColor=#FF6666;" edge="1" parent="1">
          <mxGeometry width="50" height="50" relative="1" as="geometry">
            <mxPoint x="543" y="544.79" as="sourcePoint" />
            <mxPoint x="600" y="544.79" as="targetPoint" />
          </mxGeometry>
        </mxCell>
        <mxCell id="-5w7G1Fux8MIxDP2F4Vn-36" value="Time, &lt;svg style=&quot;vertical-align: -0.025ex; font-size: 14px;&quot; xmlns:xlink=&quot;http://www.w3.org/1999/xlink&quot; viewBox=&quot;0 -626 361 637&quot; role=&quot;img&quot; height=&quot;1.441ex&quot; width=&quot;0.817ex&quot; xmlns=&quot;http://www.w3.org/2000/svg&quot;&gt;&lt;defs style=&quot;font-size: 14px;&quot;&gt;&lt;path d=&quot;M26 385Q19 392 19 395Q19 399 22 411T27 425Q29 430 36 430T87 431H140L159 511Q162 522 166 540T173 566T179 586T187 603T197 615T211 624T229 626Q247 625 254 615T261 596Q261 589 252 549T232 470L222 433Q222 431 272 431H323Q330 424 330 420Q330 398 317 385H210L174 240Q135 80 135 68Q135 26 162 26Q197 26 230 60T283 144Q285 150 288 151T303 153H307Q322 153 322 145Q322 142 319 133Q314 117 301 95T267 48T216 6T155 -11Q125 -11 98 4T59 56Q57 64 57 83V101L92 241Q127 382 128 383Q128 385 77 385H26Z&quot; id=&quot;MJX-2-TEX-I-1D461&quot; style=&quot;font-size: 14px;&quot;&gt;&lt;/path&gt;&lt;/defs&gt;&lt;g transform=&quot;scale(1,-1)&quot; stroke-width=&quot;0&quot; fill=&quot;currentColor&quot; stroke=&quot;currentColor&quot; style=&quot;font-size: 14px;&quot;&gt;&lt;g data-mml-node=&quot;math&quot; style=&quot;font-size: 14px;&quot;&gt;&lt;g data-mml-node=&quot;mi&quot; style=&quot;font-size: 14px;&quot;&gt;&lt;use xlink:href=&quot;#MJX-2-TEX-I-1D461&quot; data-c=&quot;1D461&quot; style=&quot;font-size: 14px;&quot;&gt;&lt;/use&gt;&lt;/g&gt;&lt;/g&gt;&lt;/g&gt;&lt;/svg&gt;" style="text;html=1;strokeColor=none;fillColor=none;align=center;verticalAlign=middle;whiteSpace=wrap;rounded=0;fontSize=14;" vertex="1" parent="1">
          <mxGeometry x="378.8499999999999" y="565" width="60" height="30" as="geometry" />
        </mxCell>
        <mxCell id="-5w7G1Fux8MIxDP2F4Vn-38" value="Direction of travel" style="text;html=1;strokeColor=none;fillColor=none;align=center;verticalAlign=middle;whiteSpace=wrap;rounded=0;rotation=-90;fontSize=14;" vertex="1" parent="1">
          <mxGeometry x="120" y="415" width="150" height="30" as="geometry" />
        </mxCell>
        <mxCell id="-5w7G1Fux8MIxDP2F4Vn-39" value="" style="endArrow=none;html=1;rounded=0;strokeWidth=3;strokeColor=#7EA6E0;" edge="1" parent="1">
          <mxGeometry width="50" height="50" relative="1" as="geometry">
            <mxPoint x="543" y="514.79" as="sourcePoint" />
            <mxPoint x="600" y="514.79" as="targetPoint" />
          </mxGeometry>
        </mxCell>
        <mxCell id="-5w7G1Fux8MIxDP2F4Vn-41" value="Actual course of travel" style="text;html=1;strokeColor=none;fillColor=none;align=center;verticalAlign=middle;whiteSpace=wrap;rounded=0;fontColor=#FF6666;" vertex="1" parent="1">
          <mxGeometry x="420" y="530" width="123" height="30" as="geometry" />
        </mxCell>
        <mxCell id="-5w7G1Fux8MIxDP2F4Vn-42" value="Desired course of travel" style="text;html=1;strokeColor=none;fillColor=none;align=center;verticalAlign=middle;whiteSpace=wrap;rounded=0;fontColor=#7EA6E0;" vertex="1" parent="1">
          <mxGeometry x="410" y="500" width="133" height="30" as="geometry" />
        </mxCell>
      </root>
    </mxGraphModel>
  </diagram>
  <diagram id="3fv_WK0USj7X4GVm-sku" name="valve-example">
    <mxGraphModel dx="1345" dy="925" grid="1" gridSize="10" guides="1" tooltips="1" connect="1" arrows="1" fold="1" page="1" pageScale="1" pageWidth="3300" pageHeight="2339" math="1" shadow="0">
      <root>
        <mxCell id="0" />
        <mxCell id="1" parent="0" />
        <mxCell id="GXdHivsZQdY1uxNM_5HB-2" value="" style="shape=cylinder3;whiteSpace=wrap;html=1;boundedLbl=1;backgroundOutline=1;size=20.786293029785156;" vertex="1" parent="1">
          <mxGeometry x="235.98" y="70" width="128.05" height="210" as="geometry" />
        </mxCell>
        <mxCell id="GXdHivsZQdY1uxNM_5HB-4" value="" style="endArrow=classic;html=1;rounded=0;strokeWidth=3;exitX=0.504;exitY=0.941;exitDx=0;exitDy=0;exitPerimeter=0;" edge="1" parent="1" source="GXdHivsZQdY1uxNM_5HB-5">
          <mxGeometry width="50" height="50" relative="1" as="geometry">
            <mxPoint x="292.66999999999996" y="60" as="sourcePoint" />
            <mxPoint x="300" y="90" as="targetPoint" />
          </mxGeometry>
        </mxCell>
        <mxCell id="GXdHivsZQdY1uxNM_5HB-5" value="Fluid input" style="text;html=1;strokeColor=none;fillColor=none;align=center;verticalAlign=middle;whiteSpace=wrap;rounded=0;" vertex="1" parent="1">
          <mxGeometry x="270" y="20" width="60" height="30" as="geometry" />
        </mxCell>
        <mxCell id="GXdHivsZQdY1uxNM_5HB-9" style="edgeStyle=none;rounded=0;orthogonalLoop=1;jettySize=auto;html=1;exitX=0.5;exitY=0;exitDx=0;exitDy=0;exitPerimeter=0;entryX=0;entryY=0.5;entryDx=0;entryDy=0;strokeWidth=3;" edge="1" parent="1" source="GXdHivsZQdY1uxNM_5HB-6" target="GXdHivsZQdY1uxNM_5HB-8">
          <mxGeometry relative="1" as="geometry" />
        </mxCell>
        <mxCell id="GXdHivsZQdY1uxNM_5HB-6" value="" style="shape=cylinder3;whiteSpace=wrap;html=1;boundedLbl=1;backgroundOutline=1;size=6.835727437337255;rotation=90;" vertex="1" parent="1">
          <mxGeometry x="460" y="100" width="28.05" height="270" as="geometry" />
        </mxCell>
        <mxCell id="GXdHivsZQdY1uxNM_5HB-7" value="Valve" style="rounded=0;whiteSpace=wrap;html=1;" vertex="1" parent="1">
          <mxGeometry x="414.02" y="205" width="120" height="60" as="geometry" />
        </mxCell>
        <mxCell id="GXdHivsZQdY1uxNM_5HB-8" value="Fluid output" style="text;html=1;strokeColor=none;fillColor=none;align=center;verticalAlign=middle;whiteSpace=wrap;rounded=0;strokeWidth=4;" vertex="1" parent="1">
          <mxGeometry x="640" y="220" width="90" height="30" as="geometry" />
        </mxCell>
        <mxCell id="GXdHivsZQdY1uxNM_5HB-11" style="edgeStyle=none;rounded=0;orthogonalLoop=1;jettySize=auto;html=1;exitX=0.25;exitY=0.2;exitDx=0;exitDy=0;exitPerimeter=0;dashed=1;" edge="1" parent="1" source="GXdHivsZQdY1uxNM_5HB-10" target="GXdHivsZQdY1uxNM_5HB-2">
          <mxGeometry relative="1" as="geometry" />
        </mxCell>
        <mxCell id="GXdHivsZQdY1uxNM_5HB-12" value="visual&lt;br&gt;inspection" style="edgeLabel;html=1;align=center;verticalAlign=middle;resizable=0;points=[];" vertex="1" connectable="0" parent="GXdHivsZQdY1uxNM_5HB-11">
          <mxGeometry x="0.3428" relative="1" as="geometry">
            <mxPoint x="21" y="-11" as="offset" />
          </mxGeometry>
        </mxCell>
        <mxCell id="GXdHivsZQdY1uxNM_5HB-13" style="edgeStyle=none;rounded=0;orthogonalLoop=1;jettySize=auto;html=1;exitX=0.5;exitY=1;exitDx=0;exitDy=0;entryX=0.5;entryY=0;entryDx=0;entryDy=0;" edge="1" parent="1" source="GXdHivsZQdY1uxNM_5HB-10" target="GXdHivsZQdY1uxNM_5HB-7">
          <mxGeometry relative="1" as="geometry" />
        </mxCell>
        <mxCell id="GXdHivsZQdY1uxNM_5HB-14" value="manual&lt;br&gt;actuation" style="edgeLabel;html=1;align=center;verticalAlign=middle;resizable=0;points=[];" vertex="1" connectable="0" parent="GXdHivsZQdY1uxNM_5HB-13">
          <mxGeometry x="-0.1875" y="-1" relative="1" as="geometry">
            <mxPoint as="offset" />
          </mxGeometry>
        </mxCell>
        <mxCell id="GXdHivsZQdY1uxNM_5HB-10" value="" style="shape=actor;whiteSpace=wrap;html=1;" vertex="1" parent="1">
          <mxGeometry x="460" y="70" width="40" height="60" as="geometry" />
        </mxCell>
      </root>
    </mxGraphModel>
  </diagram>
  <diagram id="KgmDAmCHNAlI1EP1JfsA" name="antenna-example">
    <mxGraphModel dx="2332" dy="1603" grid="1" gridSize="10" guides="1" tooltips="1" connect="1" arrows="1" fold="1" page="1" pageScale="1" pageWidth="3300" pageHeight="2339" math="1" shadow="0">
      <root>
        <mxCell id="0" />
        <mxCell id="1" parent="0" />
        <mxCell id="f3eVbkQ_CaRaRi35rat0-13" value="" style="shape=cylinder3;whiteSpace=wrap;html=1;boundedLbl=1;backgroundOutline=1;size=2.4392498065899417;rotation=-180;fillColor=#d5e8d4;strokeColor=#82b366;" vertex="1" parent="1">
          <mxGeometry x="810" y="613" width="20" height="67" as="geometry" />
        </mxCell>
        <mxCell id="-8eTPdLFGtl3psqgN3do-7" value="" style="shape=cylinder3;whiteSpace=wrap;html=1;boundedLbl=1;backgroundOutline=1;size=15;fillColor=#d5e8d4;strokeColor=#82b366;" vertex="1" parent="1">
          <mxGeometry x="625" y="560" width="170" height="80" as="geometry" />
        </mxCell>
        <mxCell id="-8eTPdLFGtl3psqgN3do-8" value="" style="shape=cylinder3;whiteSpace=wrap;html=1;boundedLbl=1;backgroundOutline=1;size=4.1445881236683135;fillColor=#f5f5f5;fontColor=#333333;strokeColor=#666666;" vertex="1" parent="1">
          <mxGeometry x="692" y="340" width="36" height="240" as="geometry" />
        </mxCell>
        <mxCell id="-8eTPdLFGtl3psqgN3do-3" value="" style="shape=cylinder3;whiteSpace=wrap;html=1;boundedLbl=1;backgroundOutline=1;size=61.27523026180745;lid=0;rotation=45;fillColor=#f5f5f5;fontColor=#333333;strokeColor=#666666;" vertex="1" parent="1">
          <mxGeometry x="489" y="306" width="480" height="86.42" as="geometry" />
        </mxCell>
        <mxCell id="-8eTPdLFGtl3psqgN3do-4" value="" style="ellipse;whiteSpace=wrap;html=1;rotation=45;fillColor=#f5f5f5;fontColor=#333333;strokeColor=#666666;" vertex="1" parent="1">
          <mxGeometry x="518.59" y="276.41" width="480" height="87" as="geometry" />
        </mxCell>
        <mxCell id="-8eTPdLFGtl3psqgN3do-5" value="" style="verticalLabelPosition=bottom;verticalAlign=top;html=1;shape=mxgraph.basic.cone2;dx=0.5;dy=0.9;rotation=45;" vertex="1" parent="1">
          <mxGeometry x="744.14" y="205.86" width="100" height="140" as="geometry" />
        </mxCell>
        <mxCell id="-8eTPdLFGtl3psqgN3do-9" value="" style="curved=1;endArrow=classic;html=1;rounded=0;strokeWidth=3;" edge="1" parent="1">
          <mxGeometry width="50" height="50" relative="1" as="geometry">
            <mxPoint x="729" y="499" as="sourcePoint" />
            <mxPoint x="700" y="519" as="targetPoint" />
            <Array as="points">
              <mxPoint x="760" y="500" />
              <mxPoint x="760" y="520" />
            </Array>
          </mxGeometry>
        </mxCell>
        <mxCell id="-8eTPdLFGtl3psqgN3do-10" value="" style="shape=cylinder3;whiteSpace=wrap;html=1;boundedLbl=1;backgroundOutline=1;size=15;rotation=-120;fillColor=#f5f5f5;fontColor=#333333;strokeColor=#666666;" vertex="1" parent="1">
          <mxGeometry x="248.66" y="455" width="50" height="100" as="geometry" />
        </mxCell>
        <mxCell id="-8eTPdLFGtl3psqgN3do-11" value="" style="shape=cylinder3;whiteSpace=wrap;html=1;boundedLbl=1;backgroundOutline=1;size=8.388881544916387;rotation=-120;fillColor=#d5e8d4;strokeColor=#82b366;" vertex="1" parent="1">
          <mxGeometry x="200.93" y="498" width="20" height="84" as="geometry" />
        </mxCell>
        <mxCell id="-8eTPdLFGtl3psqgN3do-12" value="" style="curved=1;endArrow=none;html=1;rounded=0;exitX=0.5;exitY=1;exitDx=0;exitDy=0;exitPerimeter=0;entryX=0;entryY=0.5;entryDx=0;entryDy=0;entryPerimeter=0;strokeWidth=3;endFill=0;" edge="1" parent="1" source="-8eTPdLFGtl3psqgN3do-10" target="-8eTPdLFGtl3psqgN3do-7">
          <mxGeometry width="50" height="50" relative="1" as="geometry">
            <mxPoint x="320" y="470" as="sourcePoint" />
            <mxPoint x="370" y="420" as="targetPoint" />
            <Array as="points">
              <mxPoint x="400" y="460" />
              <mxPoint x="540" y="620" />
            </Array>
          </mxGeometry>
        </mxCell>
        <mxCell id="-8eTPdLFGtl3psqgN3do-13" value="Potentiometer 1" style="text;html=1;strokeColor=none;fillColor=none;align=center;verticalAlign=middle;whiteSpace=wrap;rounded=0;fontSize=18;fontStyle=1" vertex="1" parent="1">
          <mxGeometry x="220.93" y="425" width="139.07" height="30" as="geometry" />
        </mxCell>
        <mxCell id="-8eTPdLFGtl3psqgN3do-14" value="Azumuth angle output&lt;br style=&quot;font-size: 18px;&quot;&gt;\(\theta_o(t)\)" style="text;html=1;strokeColor=none;fillColor=none;align=center;verticalAlign=middle;whiteSpace=wrap;rounded=0;fontSize=18;" vertex="1" parent="1">
          <mxGeometry x="750" y="500" width="109" height="60" as="geometry" />
        </mxCell>
        <mxCell id="-8eTPdLFGtl3psqgN3do-15" value="Antenna" style="text;html=1;strokeColor=none;fillColor=none;align=center;verticalAlign=middle;whiteSpace=wrap;rounded=0;fontSize=18;" vertex="1" parent="1">
          <mxGeometry x="820" y="290" width="109" height="30" as="geometry" />
        </mxCell>
        <mxCell id="-8eTPdLFGtl3psqgN3do-16" value="Desired azimuth angle input" style="text;html=1;strokeColor=none;fillColor=none;align=center;verticalAlign=middle;whiteSpace=wrap;rounded=0;fontSize=18;" vertex="1" parent="1">
          <mxGeometry x="120.00000000000006" y="590" width="109" height="60" as="geometry" />
        </mxCell>
        <mxCell id="-8eTPdLFGtl3psqgN3do-17" value="" style="curved=1;endArrow=classic;html=1;rounded=0;strokeWidth=3;" edge="1" parent="1">
          <mxGeometry width="50" height="50" relative="1" as="geometry">
            <mxPoint x="172.93" y="580" as="sourcePoint" />
            <mxPoint x="200.93" y="537" as="targetPoint" />
            <Array as="points">
              <mxPoint x="152.93" y="560" />
              <mxPoint x="172.93" y="530" />
            </Array>
          </mxGeometry>
        </mxCell>
        <mxCell id="-8eTPdLFGtl3psqgN3do-18" value="\(\theta_i(t)\)" style="text;html=1;strokeColor=none;fillColor=none;align=center;verticalAlign=middle;whiteSpace=wrap;rounded=0;fontSize=18;" vertex="1" parent="1">
          <mxGeometry x="111.93000000000006" y="475" width="109" height="60" as="geometry" />
        </mxCell>
        <mxCell id="-8eTPdLFGtl3psqgN3do-19" value="Motor" style="text;html=1;strokeColor=none;fillColor=none;align=center;verticalAlign=middle;whiteSpace=wrap;rounded=0;fontSize=18;fontStyle=1" vertex="1" parent="1">
          <mxGeometry x="640.47" y="640" width="139.07" height="30" as="geometry" />
        </mxCell>
        <mxCell id="-8eTPdLFGtl3psqgN3do-21" value="Potentiometer 1" style="rounded=0;whiteSpace=wrap;html=1;" vertex="1" parent="1">
          <mxGeometry x="280" y="810" width="120" height="60" as="geometry" />
        </mxCell>
        <mxCell id="f3eVbkQ_CaRaRi35rat0-6" style="edgeStyle=none;rounded=0;orthogonalLoop=1;jettySize=auto;html=1;exitX=1;exitY=0.5;exitDx=0;exitDy=0;exitPerimeter=0;entryX=0;entryY=0.5;entryDx=0;entryDy=0;" edge="1" parent="1" source="f3eVbkQ_CaRaRi35rat0-1" target="f3eVbkQ_CaRaRi35rat0-5">
          <mxGeometry relative="1" as="geometry" />
        </mxCell>
        <mxCell id="f3eVbkQ_CaRaRi35rat0-1" value="" style="verticalLabelPosition=bottom;verticalAlign=top;html=1;shape=mxgraph.flowchart.or;" vertex="1" parent="1">
          <mxGeometry x="479.09000000000003" y="820.25" width="39.5" height="39.5" as="geometry" />
        </mxCell>
        <mxCell id="f3eVbkQ_CaRaRi35rat0-2" style="edgeStyle=none;rounded=0;orthogonalLoop=1;jettySize=auto;html=1;exitX=1;exitY=0.5;exitDx=0;exitDy=0;entryX=0;entryY=0.5;entryDx=0;entryDy=0;entryPerimeter=0;" edge="1" parent="1" source="-8eTPdLFGtl3psqgN3do-21" target="f3eVbkQ_CaRaRi35rat0-1">
          <mxGeometry relative="1" as="geometry" />
        </mxCell>
        <mxCell id="f3eVbkQ_CaRaRi35rat0-3" value="Voltage proportional to input" style="text;html=1;strokeColor=none;fillColor=none;align=center;verticalAlign=middle;whiteSpace=wrap;rounded=0;" vertex="1" parent="1">
          <mxGeometry x="410" y="800" width="60" height="30" as="geometry" />
        </mxCell>
        <mxCell id="f3eVbkQ_CaRaRi35rat0-4" value="Error or actuating signal" style="text;html=1;strokeColor=none;fillColor=none;align=center;verticalAlign=middle;whiteSpace=wrap;rounded=0;" vertex="1" parent="1">
          <mxGeometry x="530" y="800" width="60" height="30" as="geometry" />
        </mxCell>
        <mxCell id="f3eVbkQ_CaRaRi35rat0-8" style="edgeStyle=none;rounded=0;orthogonalLoop=1;jettySize=auto;html=1;exitX=1;exitY=0.5;exitDx=0;exitDy=0;entryX=0;entryY=0.5;entryDx=0;entryDy=0;" edge="1" parent="1" source="f3eVbkQ_CaRaRi35rat0-5" target="f3eVbkQ_CaRaRi35rat0-7">
          <mxGeometry relative="1" as="geometry" />
        </mxCell>
        <mxCell id="f3eVbkQ_CaRaRi35rat0-5" value="Singal and power amplifiers" style="rounded=0;whiteSpace=wrap;html=1;" vertex="1" parent="1">
          <mxGeometry x="600" y="810" width="120" height="60" as="geometry" />
        </mxCell>
        <mxCell id="f3eVbkQ_CaRaRi35rat0-10" style="edgeStyle=none;rounded=0;orthogonalLoop=1;jettySize=auto;html=1;exitX=1;exitY=0.5;exitDx=0;exitDy=0;entryX=0;entryY=0.5;entryDx=0;entryDy=0;" edge="1" parent="1" source="f3eVbkQ_CaRaRi35rat0-7" target="f3eVbkQ_CaRaRi35rat0-9">
          <mxGeometry relative="1" as="geometry" />
        </mxCell>
        <mxCell id="f3eVbkQ_CaRaRi35rat0-18" style="edgeStyle=orthogonalEdgeStyle;rounded=0;orthogonalLoop=1;jettySize=auto;html=1;exitX=1;exitY=0.5;exitDx=0;exitDy=0;entryX=1;entryY=0.5;entryDx=0;entryDy=0;" edge="1" parent="1" source="f3eVbkQ_CaRaRi35rat0-7" target="f3eVbkQ_CaRaRi35rat0-11">
          <mxGeometry relative="1" as="geometry" />
        </mxCell>
        <mxCell id="f3eVbkQ_CaRaRi35rat0-7" value="Motor, load &lt;br&gt;and gears" style="rounded=0;whiteSpace=wrap;html=1;" vertex="1" parent="1">
          <mxGeometry x="760" y="810" width="120" height="60" as="geometry" />
        </mxCell>
        <mxCell id="f3eVbkQ_CaRaRi35rat0-9" value="Angular output" style="text;html=1;strokeColor=none;fillColor=none;align=center;verticalAlign=middle;whiteSpace=wrap;rounded=0;" vertex="1" parent="1">
          <mxGeometry x="920" y="825" width="60" height="30" as="geometry" />
        </mxCell>
        <mxCell id="f3eVbkQ_CaRaRi35rat0-11" value="Potentiometer 2" style="rounded=0;whiteSpace=wrap;html=1;" vertex="1" parent="1">
          <mxGeometry x="680" y="910" width="120" height="60" as="geometry" />
        </mxCell>
        <mxCell id="f3eVbkQ_CaRaRi35rat0-12" value="" style="shape=cylinder3;whiteSpace=wrap;html=1;boundedLbl=1;backgroundOutline=1;size=5.481054132634881;rotation=0;fillColor=#f5f5f5;fontColor=#333333;strokeColor=#666666;" vertex="1" parent="1">
          <mxGeometry x="795" y="590" width="50" height="30" as="geometry" />
        </mxCell>
        <mxCell id="f3eVbkQ_CaRaRi35rat0-14" value="Potentiometer 2" style="text;html=1;strokeColor=none;fillColor=none;align=center;verticalAlign=middle;whiteSpace=wrap;rounded=0;fontSize=18;fontStyle=1" vertex="1" parent="1">
          <mxGeometry x="840.9300000000001" y="631.5" width="139.07" height="30" as="geometry" />
        </mxCell>
        <mxCell id="f3eVbkQ_CaRaRi35rat0-15" value="Current angle of the antenna" style="text;html=1;strokeColor=none;fillColor=none;align=center;verticalAlign=middle;whiteSpace=wrap;rounded=0;fontSize=18;" vertex="1" parent="1">
          <mxGeometry x="844.14" y="670" width="130.03" height="30" as="geometry" />
        </mxCell>
        <mxCell id="f3eVbkQ_CaRaRi35rat0-17" value="" style="curved=1;endArrow=none;html=1;rounded=0;strokeWidth=3;endFill=0;" edge="1" parent="1">
          <mxGeometry width="50" height="50" relative="1" as="geometry">
            <mxPoint x="821" y="595" as="sourcePoint" />
            <mxPoint x="960" y="580" as="targetPoint" />
            <Array as="points">
              <mxPoint x="820" y="570" />
            </Array>
          </mxGeometry>
        </mxCell>
        <mxCell id="f3eVbkQ_CaRaRi35rat0-19" style="edgeStyle=orthogonalEdgeStyle;rounded=0;orthogonalLoop=1;jettySize=auto;html=1;exitX=0;exitY=0.5;exitDx=0;exitDy=0;entryX=0.5;entryY=1;entryDx=0;entryDy=0;entryPerimeter=0;" edge="1" parent="1" source="f3eVbkQ_CaRaRi35rat0-11" target="f3eVbkQ_CaRaRi35rat0-1">
          <mxGeometry relative="1" as="geometry" />
        </mxCell>
        <mxCell id="f3eVbkQ_CaRaRi35rat0-20" value="Voltage proportional to output" style="text;html=1;strokeColor=none;fillColor=none;align=center;verticalAlign=middle;whiteSpace=wrap;rounded=0;" vertex="1" parent="1">
          <mxGeometry x="580.47" y="900" width="60" height="30" as="geometry" />
        </mxCell>
        <mxCell id="f3eVbkQ_CaRaRi35rat0-21" value="Controller" style="text;html=1;strokeColor=none;fillColor=none;align=center;verticalAlign=middle;whiteSpace=wrap;rounded=0;" vertex="1" parent="1">
          <mxGeometry x="630" y="780" width="60" height="30" as="geometry" />
        </mxCell>
        <mxCell id="f3eVbkQ_CaRaRi35rat0-22" value="Plant/process" style="text;html=1;strokeColor=none;fillColor=none;align=center;verticalAlign=middle;whiteSpace=wrap;rounded=0;" vertex="1" parent="1">
          <mxGeometry x="785" y="780" width="60" height="30" as="geometry" />
        </mxCell>
        <mxCell id="f3eVbkQ_CaRaRi35rat0-23" value="Sensor" style="text;html=1;strokeColor=none;fillColor=none;align=center;verticalAlign=middle;whiteSpace=wrap;rounded=0;" vertex="1" parent="1">
          <mxGeometry x="710" y="880" width="60" height="30" as="geometry" />
        </mxCell>
        <mxCell id="f3eVbkQ_CaRaRi35rat0-24" value="Sensor" style="text;html=1;strokeColor=none;fillColor=none;align=center;verticalAlign=middle;whiteSpace=wrap;rounded=0;" vertex="1" parent="1">
          <mxGeometry x="310" y="780" width="60" height="30" as="geometry" />
        </mxCell>
        <mxCell id="f3eVbkQ_CaRaRi35rat0-26" style="edgeStyle=none;rounded=0;orthogonalLoop=1;jettySize=auto;html=1;exitX=1;exitY=0.5;exitDx=0;exitDy=0;entryX=0;entryY=0.5;entryDx=0;entryDy=0;" edge="1" parent="1" source="f3eVbkQ_CaRaRi35rat0-25" target="-8eTPdLFGtl3psqgN3do-21">
          <mxGeometry relative="1" as="geometry" />
        </mxCell>
        <mxCell id="f3eVbkQ_CaRaRi35rat0-25" value="Angular input" style="text;html=1;strokeColor=none;fillColor=none;align=center;verticalAlign=middle;whiteSpace=wrap;rounded=0;" vertex="1" parent="1">
          <mxGeometry x="140" y="825" width="89" height="30" as="geometry" />
        </mxCell>
        <mxCell id="FvVh0rFGgGlQiAB-zLeR-1" value="+" style="text;html=1;strokeColor=none;fillColor=none;align=center;verticalAlign=middle;whiteSpace=wrap;rounded=0;" vertex="1" parent="1">
          <mxGeometry x="463" y="825" width="10" height="10" as="geometry" />
        </mxCell>
        <mxCell id="FvVh0rFGgGlQiAB-zLeR-2" value="-" style="text;html=1;strokeColor=none;fillColor=none;align=center;verticalAlign=middle;whiteSpace=wrap;rounded=0;" vertex="1" parent="1">
          <mxGeometry x="489" y="865" width="10" height="10" as="geometry" />
        </mxCell>
      </root>
    </mxGraphModel>
  </diagram>
  <diagram id="4HApnW8wVT3lXrqq10g4" name="design-process">
    <mxGraphModel dx="972" dy="668" grid="1" gridSize="10" guides="1" tooltips="1" connect="1" arrows="1" fold="1" page="1" pageScale="1" pageWidth="3300" pageHeight="2339" math="1" shadow="0">
      <root>
        <mxCell id="0" />
        <mxCell id="1" parent="0" />
        <mxCell id="BadUjcyRsNmmJ1OUzoRX-15" style="edgeStyle=none;rounded=0;orthogonalLoop=1;jettySize=auto;html=1;exitX=0.5;exitY=1;exitDx=0;exitDy=0;entryX=0.5;entryY=0;entryDx=0;entryDy=0;" edge="1" parent="1" source="BadUjcyRsNmmJ1OUzoRX-1" target="BadUjcyRsNmmJ1OUzoRX-2">
          <mxGeometry relative="1" as="geometry" />
        </mxCell>
        <mxCell id="BadUjcyRsNmmJ1OUzoRX-1" value="Determine a physical system and specifications from the requirements." style="rounded=0;whiteSpace=wrap;html=1;" vertex="1" parent="1">
          <mxGeometry x="160" y="40" width="260" height="60" as="geometry" />
        </mxCell>
        <mxCell id="BadUjcyRsNmmJ1OUzoRX-16" style="edgeStyle=none;rounded=0;orthogonalLoop=1;jettySize=auto;html=1;exitX=0.5;exitY=1;exitDx=0;exitDy=0;entryX=0.5;entryY=0;entryDx=0;entryDy=0;" edge="1" parent="1" source="BadUjcyRsNmmJ1OUzoRX-2" target="BadUjcyRsNmmJ1OUzoRX-8">
          <mxGeometry relative="1" as="geometry" />
        </mxCell>
        <mxCell id="BadUjcyRsNmmJ1OUzoRX-2" value="Draw a functional block diagram." style="rounded=0;whiteSpace=wrap;html=1;" vertex="1" parent="1">
          <mxGeometry x="160" y="120" width="260" height="60" as="geometry" />
        </mxCell>
        <mxCell id="BadUjcyRsNmmJ1OUzoRX-18" style="edgeStyle=none;rounded=0;orthogonalLoop=1;jettySize=auto;html=1;exitX=0.5;exitY=1;exitDx=0;exitDy=0;entryX=0.5;entryY=0;entryDx=0;entryDy=0;" edge="1" parent="1" source="BadUjcyRsNmmJ1OUzoRX-3" target="BadUjcyRsNmmJ1OUzoRX-4">
          <mxGeometry relative="1" as="geometry" />
        </mxCell>
        <mxCell id="BadUjcyRsNmmJ1OUzoRX-3" value="Transform the physical system into a schematic/system configuration." style="rounded=0;whiteSpace=wrap;html=1;" vertex="1" parent="1">
          <mxGeometry x="160" y="280" width="260" height="60" as="geometry" />
        </mxCell>
        <mxCell id="BadUjcyRsNmmJ1OUzoRX-19" style="edgeStyle=none;rounded=0;orthogonalLoop=1;jettySize=auto;html=1;exitX=0.5;exitY=1;exitDx=0;exitDy=0;entryX=0.5;entryY=0;entryDx=0;entryDy=0;" edge="1" parent="1" source="BadUjcyRsNmmJ1OUzoRX-4" target="BadUjcyRsNmmJ1OUzoRX-5">
          <mxGeometry relative="1" as="geometry" />
        </mxCell>
        <mxCell id="BadUjcyRsNmmJ1OUzoRX-4" value="Use the schematic to obtain a model of the process. A block diagram, signal-flow diagram, or state-space representation." style="rounded=0;whiteSpace=wrap;html=1;" vertex="1" parent="1">
          <mxGeometry x="160" y="360" width="260" height="60" as="geometry" />
        </mxCell>
        <mxCell id="BadUjcyRsNmmJ1OUzoRX-20" style="edgeStyle=none;rounded=0;orthogonalLoop=1;jettySize=auto;html=1;exitX=0.5;exitY=1;exitDx=0;exitDy=0;entryX=0.5;entryY=0;entryDx=0;entryDy=0;" edge="1" parent="1" source="BadUjcyRsNmmJ1OUzoRX-5" target="BadUjcyRsNmmJ1OUzoRX-6">
          <mxGeometry relative="1" as="geometry" />
        </mxCell>
        <mxCell id="BadUjcyRsNmmJ1OUzoRX-5" value="If multiple blocks, reduce the block diagram to a single block or closed-loop system." style="rounded=0;whiteSpace=wrap;html=1;" vertex="1" parent="1">
          <mxGeometry x="160" y="440" width="260" height="60" as="geometry" />
        </mxCell>
        <mxCell id="BadUjcyRsNmmJ1OUzoRX-25" style="edgeStyle=orthogonalEdgeStyle;rounded=0;orthogonalLoop=1;jettySize=auto;html=1;exitX=0.5;exitY=1;exitDx=0;exitDy=0;entryX=1;entryY=0.5;entryDx=0;entryDy=0;" edge="1" parent="1" source="BadUjcyRsNmmJ1OUzoRX-6" target="BadUjcyRsNmmJ1OUzoRX-8">
          <mxGeometry relative="1" as="geometry">
            <Array as="points">
              <mxPoint x="290" y="610" />
              <mxPoint x="460" y="610" />
              <mxPoint x="460" y="230" />
            </Array>
          </mxGeometry>
        </mxCell>
        <mxCell id="BadUjcyRsNmmJ1OUzoRX-6" value="Analyze, design, and test to see that requirements and specifications are met." style="rounded=0;whiteSpace=wrap;html=1;" vertex="1" parent="1">
          <mxGeometry x="160" y="520" width="260" height="60" as="geometry" />
        </mxCell>
        <mxCell id="BadUjcyRsNmmJ1OUzoRX-17" style="edgeStyle=none;rounded=0;orthogonalLoop=1;jettySize=auto;html=1;exitX=0.5;exitY=1;exitDx=0;exitDy=0;entryX=0.5;entryY=0;entryDx=0;entryDy=0;" edge="1" parent="1" source="BadUjcyRsNmmJ1OUzoRX-8" target="BadUjcyRsNmmJ1OUzoRX-3">
          <mxGeometry relative="1" as="geometry" />
        </mxCell>
        <mxCell id="BadUjcyRsNmmJ1OUzoRX-8" value="Identify the variables to be controlled" style="rounded=0;whiteSpace=wrap;html=1;" vertex="1" parent="1">
          <mxGeometry x="160" y="200" width="260" height="60" as="geometry" />
        </mxCell>
        <mxCell id="BadUjcyRsNmmJ1OUzoRX-11" value="" style="labelPosition=right;align=left;strokeWidth=1;shape=mxgraph.mockup.markup.curlyBrace;html=1;shadow=0;dashed=0;strokeColor=#1A1A1A;direction=north;" vertex="1" parent="1">
          <mxGeometry x="130" y="520" width="20" height="60" as="geometry" />
        </mxCell>
        <mxCell id="BadUjcyRsNmmJ1OUzoRX-12" value="Optimization" style="text;html=1;strokeColor=none;fillColor=none;align=right;verticalAlign=middle;whiteSpace=wrap;rounded=0;" vertex="1" parent="1">
          <mxGeometry x="40" y="455" width="90" height="30" as="geometry" />
        </mxCell>
        <mxCell id="BadUjcyRsNmmJ1OUzoRX-13" value="" style="labelPosition=right;align=left;strokeWidth=1;shape=mxgraph.mockup.markup.curlyBrace;html=1;shadow=0;dashed=0;strokeColor=#1A1A1A;direction=north;" vertex="1" parent="1">
          <mxGeometry x="130" y="440" width="20" height="60" as="geometry" />
        </mxCell>
        <mxCell id="BadUjcyRsNmmJ1OUzoRX-14" value="Analysis" style="text;html=1;strokeColor=none;fillColor=none;align=right;verticalAlign=middle;whiteSpace=wrap;rounded=0;" vertex="1" parent="1">
          <mxGeometry x="40" y="535" width="90" height="30" as="geometry" />
        </mxCell>
        <mxCell id="BadUjcyRsNmmJ1OUzoRX-21" value="" style="labelPosition=right;align=left;strokeWidth=1;shape=mxgraph.mockup.markup.curlyBrace;html=1;shadow=0;dashed=0;strokeColor=#1A1A1A;direction=north;" vertex="1" parent="1">
          <mxGeometry x="130" y="200" width="20" height="220" as="geometry" />
        </mxCell>
        <mxCell id="BadUjcyRsNmmJ1OUzoRX-22" value="Requeriments" style="text;html=1;strokeColor=none;fillColor=none;align=right;verticalAlign=middle;whiteSpace=wrap;rounded=0;" vertex="1" parent="1">
          <mxGeometry x="40" y="95" width="90" height="30" as="geometry" />
        </mxCell>
        <mxCell id="BadUjcyRsNmmJ1OUzoRX-23" value="" style="labelPosition=right;align=left;strokeWidth=1;shape=mxgraph.mockup.markup.curlyBrace;html=1;shadow=0;dashed=0;strokeColor=#1A1A1A;direction=north;" vertex="1" parent="1">
          <mxGeometry x="130" y="40" width="20" height="140" as="geometry" />
        </mxCell>
        <mxCell id="BadUjcyRsNmmJ1OUzoRX-24" value="Modelling and Desing" style="text;html=1;strokeColor=none;fillColor=none;align=right;verticalAlign=middle;whiteSpace=wrap;rounded=0;" vertex="1" parent="1">
          <mxGeometry x="40" y="295" width="90" height="30" as="geometry" />
        </mxCell>
        <mxCell id="BadUjcyRsNmmJ1OUzoRX-28" value="If the performance does not meet the specifications" style="text;html=1;strokeColor=none;fillColor=none;align=center;verticalAlign=middle;whiteSpace=wrap;rounded=0;" vertex="1" parent="1">
          <mxGeometry x="340" y="610" width="150" height="30" as="geometry" />
        </mxCell>
      </root>
    </mxGraphModel>
  </diagram>
</mxfile>
